<svg width="20" height="20" viewBox="0 0 20 20" fill="none" xmlns="http://www.w3.org/2000/svg">
<path id="Union" fill-rule="evenodd" clip-rule="evenodd" d="M19 0.25H18.945C16.991 0.249978 15.4326 0.24996 13.9908 0.512098C12.6356 0.758501 11.3992 1.23163 10 2.10704C8.60076 1.23163 7.36438 0.758502 6.00916 0.512099C4.56741 0.249961 3.00897 0.249979 1.05503 0.25H1.05502H1C0.801088 0.25 0.610322 0.329019 0.46967 0.469671C0.329018 0.610323 0.25 0.801089 0.25 1V13C0.25 13.4142 0.585786 13.75 1 13.75C3.02025 13.75 4.4461 13.7525 5.74084 13.9879C7.0029 14.2174 8.15822 14.6735 9.58397 15.624C9.8359 15.792 10.1641 15.792 10.416 15.624C11.8418 14.6735 12.9971 14.2174 14.2592 13.9879C15.5539 13.7525 16.9798 13.75 19 13.75C19.4142 13.75 19.75 13.4142 19.75 13V1C19.75 0.585788 19.4142 0.25 19 0.25ZM5.74084 1.9879C6.90291 2.19919 7.97448 2.60267 9.25 3.40729V13.6677C8.14647 13.0668 7.11756 12.7136 6.00916 12.5121C4.74252 12.2818 3.38582 12.2538 1.75 12.2505V1.75061C3.38435 1.75449 4.6124 1.78273 5.74084 1.9879ZM13.9908 12.5121C12.8824 12.7136 11.8535 13.0668 10.75 13.6677V3.40729C12.0255 2.60267 13.0971 2.19919 14.2592 1.9879C15.3876 1.78273 16.6156 1.75448 18.25 1.75061V12.2505C16.6142 12.2538 15.2575 12.2818 13.9908 12.5121ZM1 15.75C0.585786 15.75 0.25 16.0858 0.25 16.5C0.25 16.9142 0.585786 17.25 1 17.25C2.97377 17.25 4.39687 17.3743 5.67766 17.7236C6.95056 18.0707 8.12623 18.6522 9.58397 19.624C9.8359 19.792 10.1641 19.792 10.416 19.624C11.8738 18.6522 13.0494 18.0707 14.3223 17.7236C15.6031 17.3743 17.0262 17.25 19 17.25C19.4142 17.25 19.75 16.9142 19.75 16.5C19.75 16.0858 19.4142 15.75 19 15.75C16.9738 15.75 15.3969 15.8757 13.9277 16.2764C12.585 16.6426 11.3686 17.2283 10 18.1041C8.63141 17.2283 7.41499 16.6426 6.07234 16.2764C4.60313 15.8757 3.02623 15.75 1 15.75Z" fill="black"/>
</svg>
