<svg width="20" height="20" viewBox="0 0 20 20" fill="none" xmlns="http://www.w3.org/2000/svg">
<path id="Union" fill-rule="evenodd" clip-rule="evenodd" d="M10 0.25C6.77743 0.25 4.36338 1.5959 2.76986 2.92383C2.38294 3.24627 2.04305 3.56863 1.75 3.87217V2C1.75 1.58579 1.41421 1.25 1 1.25C0.585786 1.25 0.25 1.58579 0.25 2V6C0.25 6.41421 0.585786 6.75 1 6.75H4.5C4.91421 6.75 5.25 6.41421 5.25 6C5.25 5.58579 4.91421 5.25 4.5 5.25H2.51757C2.83634 4.89199 3.24073 4.48401 3.73014 4.07617C5.13662 2.9041 7.22257 1.75 10 1.75C14.5842 1.75 18.25 5.44205 18.25 10C18.25 14.5563 14.5563 18.25 10 18.25C5.44365 18.25 1.75 14.5563 1.75 10C1.75 9.58579 1.41421 9.25 1 9.25C0.585786 9.25 0.25 9.58579 0.25 10C0.25 15.3848 4.61522 19.75 10 19.75C15.3848 19.75 19.75 15.3848 19.75 10C19.75 4.61682 15.4158 0.25 10 0.25ZM10.75 6C10.75 5.58579 10.4142 5.25 10 5.25C9.58579 5.25 9.25 5.58579 9.25 6V10C9.25 10.2508 9.37533 10.4849 9.58397 10.624L12.584 12.624C12.9286 12.8538 13.3943 12.7607 13.624 12.416C13.8538 12.0714 13.7607 11.6057 13.416 11.376L10.75 9.59861V6Z" fill="black"/>
</svg>
